<svg width="370" height="358" viewBox="0 0 370 358" fill="none" xmlns="http://www.w3.org/2000/svg">
<g clip-path="url(#clip0_4_2)">
<path d="M123.404 205.817L121.449 201.429H127.172L144.293 237.627H138.475L136.138 232.429H125.312C123.277 232.429 121.449 232.619 119.827 233.001C118.397 233.351 117.204 233.812 116.251 234.384C115.392 234.893 114.82 235.417 114.534 235.958L113.628 237.627H108L123.404 205.817ZM127.22 227.183H133.801L126.027 212.16L118.158 229.186C118.858 228.581 119.923 228.105 121.354 227.755C122.975 227.373 124.93 227.183 127.22 227.183ZM169.045 207.295V218.169C170.031 217.597 171.143 217.199 172.383 216.977C173.305 216.818 174.45 216.738 175.817 216.738H181.922C183.575 216.738 184.87 216.325 185.808 215.498C186.746 214.672 187.215 213.447 187.215 211.826C187.215 208.805 185.451 207.295 181.922 207.295H169.045V207.295ZM169.045 223.463V232.429H182.446C183.495 232.429 184.497 232.238 185.451 231.856C186.5 231.475 187.327 230.918 187.931 230.187C188.63 229.329 188.98 228.343 188.98 227.23C188.98 225.323 188.233 223.94 186.738 223.081C185.562 222.382 183.956 222.032 181.922 222.032H175.817C173.083 222.032 170.825 222.509 169.045 223.463V223.463ZM194.131 227.898C194.131 230.123 193.511 232.015 192.271 233.573C191.19 234.94 189.663 235.974 187.692 236.673C185.944 237.309 184.02 237.627 181.922 237.627H163.894V202.049H181.922C183.956 202.049 185.761 202.431 187.334 203.194C188.908 203.957 190.14 205.054 191.031 206.485C191.953 207.979 192.414 209.743 192.414 211.778C192.414 213.336 192.135 214.727 191.579 215.951C191.023 217.175 190.236 218.121 189.218 218.789C190.585 219.425 191.714 220.474 192.604 221.936C193.622 223.622 194.131 225.609 194.131 227.898V227.898ZM233.476 219.6C233.476 217.056 232.824 214.751 231.521 212.684C230.281 210.681 228.587 209.108 226.441 207.963C224.295 206.818 221.966 206.246 219.455 206.246C216.847 206.246 214.471 206.834 212.325 208.011C210.179 209.187 208.501 210.793 207.293 212.827C206.053 214.958 205.433 217.326 205.433 219.933C205.433 222.413 206.101 224.703 207.436 226.801C208.708 228.772 210.417 230.338 212.563 231.499C214.709 232.659 217.03 233.239 219.526 233.239C222.022 233.239 224.343 232.635 226.489 231.427C228.635 230.219 230.328 228.597 231.568 226.563C232.84 224.432 233.476 222.111 233.476 219.6V219.6ZM238.627 219.886C238.627 223.32 237.736 226.483 235.956 229.376C234.239 232.142 231.91 234.344 228.969 235.982C226.028 237.619 222.857 238.438 219.455 238.438C215.925 238.438 212.682 237.579 209.726 235.862C206.832 234.209 204.559 231.936 202.906 229.042C201.189 226.086 200.33 222.843 200.33 219.313C200.33 215.911 201.237 212.78 203.049 209.918C204.766 207.184 207.095 205.014 210.036 203.408C212.977 201.803 216.132 201 219.502 201C222.968 201 226.179 201.843 229.136 203.528C232.029 205.181 234.318 207.422 236.003 210.252C237.752 213.209 238.627 216.42 238.627 219.886V219.886ZM247.783 207.057L243.634 202.049H250.359L273.203 229.233V202.049H278.449V237.627H273.298L252.886 213.161V237.627H247.783V207.057V207.057ZM294.044 237.627H288.941V202.049H294.044V237.627ZM331.005 207.295H318.462V237.627H313.406V207.295H300.721V202.049H331.005V207.295ZM348.793 205.817L346.838 201.429H352.561L369.682 237.627H363.864L361.527 232.429H350.701C348.666 232.429 346.838 232.619 345.217 233.001C343.786 233.351 342.594 233.812 341.64 234.384C340.781 234.893 340.209 235.417 339.923 235.958L339.017 237.627H333.389L348.793 205.817ZM352.609 227.183H359.19L351.416 212.16L343.547 229.186C344.247 228.581 345.312 228.105 346.743 227.755C348.364 227.373 350.32 227.183 352.609 227.183Z" fill="#662D91"/>
<path d="M173.397 142.917L149.642 171.33L126.073 142.917V190.707H116.105V130.993L108 121.211H121.135L149.549 155.307L178.335 121.211H191.47L183.365 130.993V190.707H173.397V142.917V142.917ZM227.616 128.571L223.796 120H234.975L268.419 190.707H257.054L252.489 180.553H231.342C227.367 180.553 223.796 180.926 220.629 181.671C217.834 182.354 215.505 183.255 213.642 184.373C211.965 185.366 210.847 186.391 210.288 187.447L208.518 190.707H197.525L227.616 128.571ZM235.068 170.306H247.924L232.739 140.961L217.368 174.218C218.734 173.038 220.815 172.107 223.61 171.423C226.777 170.678 230.597 170.306 235.068 170.306ZM291.615 131.365V154.469C293.541 153.351 295.683 152.605 298.043 152.233C299.782 151.922 302.018 151.767 304.751 151.767H317.979C321.643 151.767 324.5 150.929 326.55 149.252C328.724 147.451 329.81 144.749 329.81 141.147C329.81 137.731 328.661 135.185 326.363 133.508C324.376 132.08 321.581 131.365 317.979 131.365H291.615V131.365ZM321.333 179.715L312.856 161.921H304.751C302.204 161.921 299.969 162.077 298.043 162.387C295.683 162.822 293.541 163.567 291.615 164.623V190.707H281.461V121.211H317.979C322.265 121.211 326.053 122.018 329.345 123.633C332.636 125.248 335.183 127.546 336.984 130.527C338.909 133.694 339.871 137.421 339.871 141.706C339.871 146.923 338.474 151.208 335.679 154.562C332.885 157.916 328.941 160.244 323.848 161.549L329.251 172.635C330.804 174.932 332.015 176.547 332.885 177.479C333.94 178.659 334.95 179.451 335.912 179.854C336.875 180.258 338.133 180.46 339.685 180.46H340.71L342.946 180.367V190.707C339.344 190.707 336.673 190.583 334.934 190.335C332.015 189.838 329.531 188.875 327.481 187.447C325.059 185.708 323.01 183.13 321.333 179.715V179.715ZM369.682 190.707H359.714V121.211H369.682V190.707Z" fill="#662D91"/>
<path d="M19.583 83.9833C19.583 83.9833 19.583 18.5822 33.1648 0C33.1648 0 66.0404 17.1513 66.0404 30.7369C66.0404 44.3187 54.6049 35.0219 54.6049 35.0219C54.6049 35.0219 39.5961 22.871 35.3073 7.14671C35.3073 7.14671 40.5627 36.6545 56.6409 42.3741C61.4206 44.0714 65.2261 45.605 67.2011 36.5403V81.8408C67.2049 81.8408 51.6443 96.6974 19.583 83.9833Z" fill="#D90D32"/>
<path d="M18.1522 81.8408C18.1522 81.8408 8.77164 86.651 24.5872 91.2137C33.5187 93.7901 44.9314 93.7101 53.4557 93.0099C60.0354 92.4657 61.5005 91.0311 62.2045 90.6848C63.8104 89.8894 72.3005 84.9689 70.7821 82.4649C70.7821 82.4649 74.1804 81.8256 73.9102 91.2137L76.0488 168.682C76.0488 168.682 73.4383 173.892 61.8468 175.654L62.1132 96.3131L61.8468 93.3638C61.8468 93.3638 53.5356 92.8273 53.5356 95.5063L52.999 176.727C52.999 176.727 17.6955 178.892 12.5277 168.952V88.2721C12.5277 88.2721 11.1881 84.7863 18.1522 81.8408Z" fill="#D90D32"/>
<path d="M4.07568 200.043C4.07568 200.043 -2.09682 207.011 5.94798 211.304C13.9928 215.588 36.7724 220.144 55.5373 218.804C74.3021 217.468 84.7558 208.354 84.7558 208.354C84.7558 208.354 89.5812 203.525 83.4125 200.043C83.4125 200.043 89.0408 198.464 88.2378 216.14L88.3178 335.397C88.3178 335.397 56.3402 380.164 0.0494755 343.171V208.621C0.0494755 208.621 -0.749682 203.259 4.07568 200.043Z" fill="#D90D32"/>
<path d="M10.7277 167.86C10.7277 167.86 5.30105 175.338 25.7365 180.726C48.6075 186.762 73.2671 177.644 73.2671 177.644C73.2671 177.644 79.3482 174.025 79.6146 171.879C79.881 169.74 78.5415 167.86 78.5415 167.86C78.5415 167.86 82.5639 168.971 82.2937 178.869L82.3089 203.776C82.3089 203.776 76.0489 209.991 62.996 211.821L62.7259 181.529C62.7259 181.529 55.4954 182.869 53.6155 182.869L53.0751 213.431C53.0751 213.431 13.6769 214.23 6.16869 204.043V177.244C6.16869 177.244 5.90232 169.736 10.7277 167.86Z" fill="#D90D32"/>
</g>
<defs>
<clipPath id="clip0_4_2">
<rect width="369.682" height="357.814" fill="white"/>
</clipPath>
</defs>
</svg>
